<svg data-v-423bf9ae="" xmlns="http://www.w3.org/2000/svg" viewBox="0 0 420 90" class="iconLeft"><!----><!----><!----><g data-v-423bf9ae="" id="846083e8-cb93-45fa-aed0-fcad96d926c5" fill="#FFFFFF" transform="matrix(6.109979629516602,0,0,6.109979629516602,110.00000762939453,3.3299407958984375)"><path d="M0.37 1.93L0.37 1.93L3.15 1.93L3.15 1.93Q5.00 1.93 5.51 2.87L5.51 2.87L5.51 2.87Q5.80 3.36 5.80 4.21L5.80 4.21L5.80 4.89L5.80 4.89Q5.80 5.86 4.96 6.45L4.96 6.45L4.96 6.45Q5.24 6.50 5.68 6.89L5.68 6.89L5.89 6.89L5.89 6.89Q6.31 7.31 6.43 7.71L6.43 7.71L6.43 7.71Q6.47 7.85 6.47 7.86L6.47 7.86L6.73 7.86L6.73 8.03L5.84 8.03L5.84 7.86L4.02 7.86L4.02 7.34L2.23 7.34L2.23 10.19L3.35 10.19L3.35 9.99L4.02 9.99L4.02 8.03L5.84 8.03L5.84 9.75L6.05 9.75L6.05 10.84L5.44 10.84L5.44 11.09L6.05 11.09L6.05 11.55L3.73 11.55L3.73 11.73L1.20 11.73L1.20 11.55L0.66 11.55L0.66 10.04L1.41 10.04L1.41 9.64L0.66 9.64L0.66 9.64Q0.64 8.49 0.64 7.93L0.64 7.93L0.64 7.21L0 7.21L0 7.02L0.64 7.02L0.64 6.64L0.33 6.64L0.33 1.97L0.33 1.97Q0.34 1.93 0.37 1.93ZM2.58 3.59L2.26 3.59L2.26 6.02L2.68 6.02L2.68 6.02Q3.42 6.02 3.65 5.77L3.65 5.77L3.65 5.77Q3.88 5.57 3.88 4.70L3.88 4.70L3.88 4.66L3.88 4.66Q3.88 3.91 3.65 3.76L3.65 3.76L3.65 3.76Q3.49 3.59 2.58 3.59L2.58 3.59ZM1.56 7.02L0.66 7.02L0.66 7.21L1.56 7.21L1.56 7.02ZM0.29 7.69L0.29 7.24L0.62 7.24L0.62 7.31L0.62 7.31Q0.62 7.34 0.59 7.34L0.59 7.34L0.38 7.34L0.38 7.41L0.57 7.41L0.57 7.41Q0.60 7.42 0.60 7.44L0.60 7.44L0.60 7.48L0.60 7.48Q0.60 7.51 0.57 7.51L0.57 7.51L0.38 7.51L0.38 7.59L0.62 7.59L0.62 7.66L0.62 7.66Q0.62 7.69 0.59 7.69L0.59 7.69L0.29 7.69ZM3.10 8.03L3.10 7.86L4.02 7.86L4.02 8.03L3.10 8.03ZM6.11 8.06L6.11 8.06L6.17 8.06L6.17 8.06Q6.20 8.07 6.20 8.09L6.20 8.09L6.20 8.38L6.20 8.38Q6.17 8.53 6.05 8.53L6.05 8.53L6.05 8.53Q5.89 8.50 5.89 8.38L5.89 8.38L5.89 8.36L5.89 8.36Q5.90 8.33 5.93 8.33L5.93 8.33L5.96 8.33L5.96 8.33Q6.00 8.33 6.02 8.43L6.02 8.43L6.08 8.43L6.08 8.09L6.08 8.09Q6.08 8.06 6.11 8.06ZM5.96 8.65L5.96 8.65L6.10 8.65L6.10 8.65Q6.33 8.65 6.33 8.90L6.33 8.90L6.33 8.90Q6.33 9.07 6.11 9.10L6.11 9.10L5.93 9.10L5.93 8.68L5.93 8.68Q5.93 8.65 5.96 8.65ZM6.10 8.75L6.05 8.75L6.05 9.00L6.11 9.00L6.11 9.00Q6.21 9.00 6.21 8.90L6.21 8.90L6.21 8.87L6.21 8.87Q6.21 8.75 6.10 8.75L6.10 8.75ZM5.96 9.24L5.96 9.24L6.21 9.24L6.21 9.24Q6.25 9.24 6.25 9.27L6.25 9.27L6.25 9.34L6.05 9.34L6.05 9.42L6.21 9.42L6.21 9.50L6.05 9.50L6.05 9.65L6.05 9.65Q6.05 9.69 6.02 9.69L6.02 9.69L5.93 9.69L5.93 9.27L5.93 9.27Q5.93 9.24 5.96 9.24ZM3.62 9.57L3.62 9.50L3.97 9.50L3.97 9.58L3.75 9.86L3.99 9.86L3.99 9.92L3.99 9.92Q3.99 9.95 3.95 9.95L3.95 9.95L3.64 9.95L3.64 9.95Q3.60 9.95 3.60 9.92L3.60 9.92L3.60 9.87L3.82 9.60L3.65 9.60L3.65 9.60Q3.62 9.60 3.62 9.57L3.62 9.57ZM2.28 9.86L2.28 9.79L2.30 9.79L2.30 9.79Q2.61 9.88 2.61 9.92L2.61 9.92L2.61 9.95L2.61 9.95Q2.58 10.00 2.30 10.10L2.30 10.10L2.28 10.07L2.28 10.06L2.28 10.06Q2.28 10.01 2.48 9.95L2.48 9.95L2.48 9.95Q2.48 9.92 2.28 9.86L2.28 9.86ZM7.33 1.93L7.33 1.93L9.18 1.93L9.18 1.93Q9.21 1.94 9.21 1.97L9.21 1.97L9.21 6.73L9.21 6.73Q9.21 6.76 9.18 6.76L9.18 6.76L8.96 6.76L8.96 11.70L8.96 11.70Q8.96 11.73 8.93 11.73L8.93 11.73L7.33 11.73L7.33 11.73Q7.30 11.73 7.30 11.70L7.30 11.70L7.30 6.64L6.81 6.64L6.81 6.64Q6.77 6.64 6.77 6.61L6.77 6.61L6.77 6.40L6.77 6.40Q6.78 6.36 6.81 6.36L6.81 6.36L7.30 6.36L7.30 1.97L7.30 1.97Q7.31 1.93 7.33 1.93ZM8.26 6.36L7.31 6.36L7.31 6.64L8.26 6.64L8.26 6.36ZM9.79 1.96L9.79 1.96L11.79 1.96L11.79 1.96Q11.83 1.96 12.43 3.53L12.43 3.53L12.43 3.53Q12.48 3.59 13.69 6.62L13.69 6.62L14.20 6.62L14.20 1.96L15.94 1.96L15.94 7.51L16.14 7.51L16.14 9.67L15.44 9.67L15.44 10.08L16.14 10.08L16.14 11.37L13.52 11.37L13.52 9.73L13.06 9.73L13.06 9.73Q12.11 7.44 11.79 6.56L11.79 6.56L11.79 4.92L11.54 4.92L11.54 9.93L11.14 9.93L11.14 11.66L9.51 11.66L9.51 7.94L9.80 7.94L9.80 7.92L9.80 7.92Q9.79 3.09 9.79 1.96ZM13.65 6.62L12.73 6.62L12.73 6.98L13.82 6.98L13.82 6.98Q13.69 6.62 13.65 6.62L13.65 6.62ZM15.00 6.62L14.21 6.62L14.21 6.98L13.83 6.98L13.83 6.98Q14.18 7.85 14.25 8.11L14.25 8.11L14.26 8.11L14.26 8.07L14.26 8.07Q14.21 7.18 14.21 6.98L14.21 6.98L15.00 6.98L15.00 6.62ZM13.52 11.73L13.52 11.55L16.69 11.55L16.69 11.73L13.52 11.73ZM20.46 1.96L20.46 1.96L20.48 1.96L20.48 1.96Q22.67 1.96 23.15 3.38L23.15 3.38L23.15 3.38Q23.38 3.91 23.38 4.87L23.38 4.87L21.79 5.09L21.77 5.05L21.77 5.02L21.77 5.02Q21.77 3.86 20.99 3.64L20.99 3.64L20.99 3.64Q20.76 3.58 20.41 3.56L20.41 3.56L20.41 3.56Q19.57 3.56 19.33 4.47L19.33 4.47L19.33 4.47Q19.18 5.07 19.18 5.89L19.18 5.89L19.18 6.66L19.18 6.66Q19.18 7.99 19.22 8.67L19.22 8.67L19.62 8.67L19.62 10.03L21.56 10.03L21.56 7.70L20.33 7.70L20.33 6.45L24.03 6.45L24.03 6.72L23.54 6.72L23.54 8.16L22.55 8.16L22.55 8.62L23.04 8.62L23.04 11.39L17.75 11.39L17.75 9.91L17.15 9.91L17.15 9.78L17.41 9.78L17.41 9.64L17.75 9.64L17.75 9.08L16.83 9.08L16.83 7.90L17.27 7.90L17.27 7.90Q17.25 7.38 17.25 7.31L17.25 7.31L17.25 7.31Q17.25 4.20 17.59 3.56L17.59 3.56L17.59 3.56Q17.69 3.15 18.16 2.67L18.16 2.67L18.16 2.67Q18.85 1.96 20.46 1.96ZM19.11 11.73L19.11 11.54L21.12 11.54L21.12 11.73L19.11 11.73ZM24.74 6.80L24.74 2.00L29.53 2.00L29.53 3.60L29.53 3.60Q29.53 3.63 29.50 3.63L29.50 3.63L26.65 3.63L26.65 5.74L29.20 5.74L29.20 5.76L29.20 5.76Q29.20 5.84 29.18 6.79L29.18 6.79L29.18 6.79Q29.16 6.79 29.16 6.80L29.16 6.80L29.27 6.80L29.27 7.29L27.06 7.29L27.06 9.29L26.47 9.29L26.47 9.49L27.06 9.49L27.06 10.10L29.57 10.10L29.57 10.32L29.37 10.32L29.37 11.52L26.37 11.52L26.37 11.73L24.95 11.73L24.95 8.24L24.74 8.24L24.74 7.01L23.18 7.01L23.18 6.80L24.74 6.80ZM25.55 6.80L24.75 6.80L24.75 7.01L25.55 7.01L25.55 6.80ZM30.80 6.39L30.80 1.94L35.72 1.94L35.72 3.57L32.75 3.57L32.75 5.89L35.31 5.89L35.34 5.91L35.32 5.95L35.32 5.95Q35.31 6.44 35.31 6.52L35.31 6.52L35.03 6.52L35.03 6.54L35.03 6.54Q35.03 6.71 34.99 7.29L34.99 7.29L35.25 7.29L35.25 7.29Q35.25 7.57 35.21 7.57L35.21 7.57L33.41 7.57L33.41 7.91L32.47 7.91L32.47 8.09L32.75 8.09L32.75 8.94L33.69 8.94L33.69 9.09L32.75 9.09L32.75 11.46L32.74 11.58L31.73 11.58L31.73 11.73L30.84 11.73L30.84 11.73Q30.80 11.73 30.80 11.70L30.80 11.70L30.80 11.45L30.82 11.29L31.30 11.29L31.30 11.04L30.80 11.04L30.80 10.10L31.04 10.10L31.04 6.64L31.43 6.64L31.43 6.39L30.80 6.39ZM30.64 8.75L30.64 8.44L30.71 8.44L30.71 8.44Q30.74 8.44 30.74 8.47L30.74 8.47L30.74 8.70L30.74 8.70Q30.75 8.80 30.79 8.80L30.79 8.80L30.86 8.80L30.86 8.80Q30.88 8.80 30.91 8.75L30.91 8.75L30.91 8.47L30.91 8.47Q30.91 8.44 30.94 8.44L30.94 8.44L31.00 8.44L31.00 8.75L31.00 8.75Q31.00 8.89 30.80 8.89L30.80 8.89L30.80 8.89Q30.64 8.87 30.64 8.75L30.64 8.75ZM32.79 8.68L32.79 8.60L32.80 8.60L32.80 8.60Q33.06 8.72 33.10 8.72L33.10 8.72L33.10 8.81L32.80 8.91L32.79 8.91L32.79 8.86L32.79 8.86Q32.79 8.84 32.98 8.76L32.98 8.76L32.98 8.75L32.98 8.75Q32.95 8.75 32.79 8.68L32.79 8.68ZM32.74 8.94L31.84 8.94L31.84 9.09L32.74 9.09L32.74 8.94ZM30.78 9.01L30.78 9.01L30.79 9.01L30.79 9.01Q30.97 9.01 30.97 9.16L30.97 9.16L30.86 9.16L30.86 9.16Q30.86 9.09 30.78 9.09L30.78 9.09L30.78 9.09Q30.75 9.09 30.72 9.14L30.72 9.14L30.72 9.14Q30.97 9.24 30.97 9.28L30.97 9.28L30.97 9.28Q30.97 9.29 30.99 9.32L30.99 9.32L30.99 9.32Q30.99 9.45 30.79 9.47L30.79 9.47L30.79 9.47Q30.60 9.45 30.60 9.30L30.60 9.30L30.72 9.30L30.72 9.30Q30.72 9.37 30.75 9.37L30.75 9.37L30.84 9.37L30.84 9.37Q30.87 9.37 30.87 9.34L30.87 9.34L30.87 9.30L30.87 9.30Q30.63 9.24 30.63 9.17L30.63 9.17L30.63 9.11L30.63 9.11Q30.68 9.01 30.78 9.01ZM30.60 9.58L30.60 9.58L30.66 9.58L30.66 9.58Q30.75 9.58 30.79 9.72L30.79 9.72L30.91 9.58L30.99 9.58L30.99 9.62L30.99 9.62Q30.87 9.78 30.87 9.84L30.87 9.84L30.87 9.84Q30.89 9.84 31.00 10.01L31.00 10.01L31.00 10.04L30.91 10.04L30.91 10.04Q30.89 10.04 30.79 9.90L30.79 9.90L30.79 9.90Q30.73 10.02 30.69 10.04L30.69 10.04L30.59 10.04L30.59 10.04Q30.71 9.83 30.74 9.82L30.74 9.82L30.74 9.82Q30.60 9.62 30.60 9.58ZM36.19 8.85L36.19 1.91L38.14 1.91L38.14 5.94L37.75 5.94L37.75 10.10L40.66 10.10L40.66 10.97L40.09 10.97L40.09 11.17L40.66 11.17L40.66 11.73L38.78 11.73L38.78 11.58L36.20 11.58L36.20 11.58Q36.19 11.42 36.19 11.33L36.19 11.33L36.19 9.14L36.68 9.14L36.68 8.85L36.19 8.85ZM40.66 11.17L40.66 10.97L41.37 10.97L41.37 11.17L40.66 11.17ZM41.96 1.93L41.96 1.93L43.80 1.93L43.80 1.93Q43.83 1.94 43.83 1.97L43.83 1.97L43.83 6.73L43.83 6.73Q43.83 6.76 43.80 6.76L43.80 6.76L43.59 6.76L43.59 11.70L43.59 11.70Q43.59 11.73 43.55 11.73L43.55 11.73L41.96 11.73L41.96 11.73Q41.92 11.73 41.92 11.70L41.92 11.70L41.92 6.64L41.43 6.64L41.43 6.64Q41.40 6.64 41.40 6.61L41.40 6.61L41.40 6.40L41.40 6.40Q41.41 6.36 41.43 6.36L41.43 6.36L41.92 6.36L41.92 1.97L41.92 1.97Q41.93 1.93 41.96 1.93ZM42.88 6.36L41.94 6.36L41.94 6.64L42.88 6.64L42.88 6.36ZM44.33 1.99L44.33 1.94L46.31 1.94L46.31 2.02L46.31 2.02Q46.31 2.95 46.65 3.44L46.65 3.44L46.65 3.44Q47.54 5.01 47.54 5.13L47.54 5.13L47.56 5.13L47.56 5.13Q47.56 5.06 48.61 3.06L48.61 3.06L48.61 3.06Q48.74 2.55 48.74 2.15L48.74 2.15L48.74 1.94L50.60 1.94L50.60 1.96L50.60 1.96Q50.60 3.34 50.11 4.03L50.11 4.03L50.11 4.03Q50.00 4.24 48.53 6.51L48.53 6.51L48.53 6.51Q48.84 7.01 48.84 7.04L48.84 7.04L48.23 7.04L48.23 7.32L49.01 7.32L49.01 7.32Q49.09 7.40 50.06 9.02L50.06 9.02L50.06 10.25L50.39 10.25L50.39 11.01L49.66 11.01L49.66 11.24L50.39 11.24L50.39 11.61L48.18 11.61L48.18 9.02L47.93 9.02L47.93 9.02Q47.48 8.04 47.48 7.98L47.48 7.98L47.46 7.98L47.46 7.98Q47.33 8.32 46.98 9.02L46.98 9.02L46.98 10.36L46.31 10.36L46.31 11.72L46.31 11.72Q45.80 11.73 45.56 11.73L45.56 11.73L44.30 11.73L44.13 11.72L44.13 10.12L44.58 10.12L44.58 8.72L45.71 8.72L45.71 8.47L45.19 8.47L45.19 7.52L45.90 7.52L45.90 7.52Q45.94 7.46 46.48 6.60L46.48 6.60L46.48 6.56L46.48 6.56Q44.88 4.17 44.74 3.93L44.74 3.93L44.74 3.93Q44.33 3.29 44.33 1.99L44.33 1.99Z"></path></g><!----><g data-v-423bf9ae="" id="c0adceab-ef97-4eec-a839-352b99592c2b" transform="matrix(2.8125,0,0,2.8125,0,0)" stroke="none" fill="#E8185E"><path d="M0 32h32V0H0v32zm19.377-19.492l6.936-6.936v20.855h-6.936V12.508zM5.688 5.572l6.936 6.936v13.919H5.688V5.572z"></path></g><!----></svg>